<?xml version="1.0" standalone="no"?><svg xmlns="http://www.w3.org/2000/svg" viewBox="0 0 1440 320"><path fill="#0099ff" fill-opacity="7" d="M0,96L26.7,112C53.3,128,107,160,160,154.7C213.3,149,267,107,320,112C373.3,117,427,171,480,176C533.3,181,587,139,640,112C693.3,85,747,75,800,112C853.3,149,907,235,960,234.7C1013.3,235,1067,149,1120,138.7C1173.3,128,1227,192,1280,181.3C1333.3,171,1387,85,1413,42.7L1440,0L1440,0L1413.3,0C1386.7,0,1333,0,1280,0C1226.7,0,1173,0,1120,0C1066.7,0,1013,0,960,0C906.7,0,853,0,800,0C746.7,0,693,0,640,0C586.7,0,533,0,480,0C426.7,0,373,0,320,0C266.7,0,213,0,160,0C106.7,0,53,0,27,0L0,0Z"></path></svg>